<svg id="Capa_1" data-name="Capa 1" xmlns="http://www.w3.org/2000/svg" xmlns:xlink="http://www.w3.org/1999/xlink" viewBox="0 0 5443 2178.18"><defs><style>.cls-1{fill:#fff;}</style></defs><path class="cls-1" d="M4175.63,1848.85a218.36,218.36,0,0,0-79.8-79.8q-50.39-29.4-110.06-29.4t-110.06,29.4a218.29,218.29,0,0,0-79.8,79.8q-29.41,50.4-29.41,110.06T3795.91,2069a218.21,218.21,0,0,0,79.8,79.8q50.39,29.42,110.06,29.41t110.06-29.41a218.21,218.21,0,0,0,79.8-79.8q29.4-50.38,29.4-110.06T4175.63,1848.85Zm-47.39,150.31-29.12,29.13a17.92,17.92,0,0,1-25.7,0l-87.65-87.65-87.65,87.65a17.91,17.91,0,0,1-25.69,0l-29.12-29.13a17.91,17.91,0,0,1,0-25.69l129.62-129.62a17.93,17.93,0,0,1,25.69,0l129.62,129.62a17.93,17.93,0,0,1,0,25.69Z"/><image width="5443" height="1094" xlink:href="../img/filigrane-vr-vibes-footer.jpg"/><image width="203" height="480" transform="scale(0.09)" xlink:href="../img/famille-image-2-576px.jpg"/><image width="295" height="480" transform="scale(0.09)" xlink:href="../img/famille-image-2-768px.jpg"/></svg>