<svg id="Calque_1" data-name="Calque 1" xmlns="http://www.w3.org/2000/svg" viewBox="0 0 435.71 435.56"><defs><style>.cls-1{fill:#006f5c;}.cls-1,.cls-2{stroke:#fff;stroke-miterlimit:10;stroke-width:9px;}.cls-2{fill:#fefefe;}</style></defs><path class="cls-1" d="M217.87,431.06C100.2,431.74,3.33,334.82,4.51,215.54,5.66,99.42,101.13,3.34,220.22,4.51c116.62,1.15,212.26,97.51,211,215.8C430,336.28,335,431.64,217.87,431.06ZM371.7,244.87a23.1,23.1,0,0,0-6.85-16.34Q300,163.6,235,98.7a24,24,0,0,0-34.28,0Q136,163.46,71.19,228.25a23.85,23.85,0,0,0,0,34.08L100.4,291.5a23.85,23.85,0,0,0,34.08,0l17.27-17.32,65-65.07c1.1-1.1,1.1-1.1,2.23,0l82.33,82.33a23.83,23.83,0,0,0,32.13,1.59c2.2-1.8,4.07-4,6.09-5.94,8.1-7.94,15.9-16.18,24.18-23.94A24.41,24.41,0,0,0,371.7,244.87Z"/><path class="cls-2" d="M371.7,244.87a24.41,24.41,0,0,1-8,18.35c-8.28,7.76-16.08,16-24.18,23.94-2,2-3.89,4.14-6.09,5.94a23.83,23.83,0,0,1-32.13-1.59L219,209.18c-1.13-1.13-1.13-1.13-2.23,0l-65,65.07-17.27,17.32a23.85,23.85,0,0,1-34.08,0L71.23,262.33a23.85,23.85,0,0,1,0-34.08Q136,163.45,200.76,98.69a24,24,0,0,1,34.28,0q64.91,64.92,129.81,129.83A23.1,23.1,0,0,1,371.7,244.87Z"/></svg>