<?xml version="1.0" encoding="utf-8"?>
<!-- Generator: Adobe Illustrator 26.3.1, SVG Export Plug-In . SVG Version: 6.00 Build 0)  -->
<svg version="1.1" id="Capa_1" xmlns="http://www.w3.org/2000/svg" xmlns:xlink="http://www.w3.org/1999/xlink" x="0px" y="0px"
	 viewBox="0 0 438.5 438.6" style="enable-background:new 0 0 438.5 438.6;" xml:space="preserve">
<style type="text/css">
	.st0{fill:#FFFFFF;}
</style>
<path class="st0" d="M409.1,109.2c-19.1-33.1-46.7-60.7-79.8-79.8C295.7,9.8,259.1,0,219.3,0c-39.8,0-76.5,9.8-110.1,29.4
	c-33.1,19.1-60.7,46.7-79.8,79.8C9.8,142.8,0,179.5,0,219.3c0,39.8,9.8,76.5,29.4,110.1c19.1,33.1,46.7,60.7,79.8,79.8
	c33.6,19.6,70.3,29.4,110.1,29.4s76.5-9.8,110.1-29.4c33.1-19.1,60.7-46.7,79.8-79.8c19.6-33.6,29.4-70.3,29.4-110.1
	S428.7,142.8,409.1,109.2z M361.7,259.5l-29.1,29.1c-6.9,7.1-18.2,7.3-25.3,0.4c-0.1-0.1-0.2-0.2-0.4-0.4L219.3,201l-87.6,87.7
	c-6.9,7.1-18.2,7.3-25.3,0.4c-0.1-0.1-0.2-0.2-0.4-0.4l-29.1-29.1c-7.1-6.9-7.3-18.2-0.4-25.3c0.1-0.1,0.2-0.2,0.4-0.4l129.6-129.6
	c6.9-7.1,18.3-7.2,25.4-0.3c0.1,0.1,0.2,0.2,0.3,0.3l129.6,129.6c7.1,6.9,7.2,18.3,0.3,25.4C362,259.3,361.9,259.4,361.7,259.5z"/>
<image style="overflow:visible;enable-background:new    ;" width="203" height="480" xlink:href="../img/famille-image-2-576px.jpg"  transform="matrix(9.000000e-02 0 0 9.000000e-02 -3766.4998 -1739.6499)">
</image>
<image style="overflow:visible;enable-background:new    ;" width="295" height="480" xlink:href="../img/famille-image-2-768px.jpg"  transform="matrix(9.000000e-02 0 0 9.000000e-02 -3766.4998 -1739.6499)">
</image>
</svg>
